<svg id="Bold" xmlns="http://www.w3.org/2000/svg" width="818.6" height="511.625" viewBox="0 0 818.6 511.625"><title>google-plus</title><path d="M744.3462,153.4875h-74.595v74.2538H595.4974v74.595h74.2538V376.59h74.595V302.3363H818.6v-74.595H744.3462Z" transform="translate(0)"/><path d="M255.8125,511.625c147.6209,0,245.6823-103.6211,245.6823-249.8777a218.5831,218.5831,0,0,0-4.1612-42.5672H255.8466v87.9313H401.0458C395.111,344.46,357.08,417.3837,255.8466,417.3837c-87.215,0-158.4332-72.2415-158.4332-161.5712S168.5975,94.2072,255.8466,94.2072c49.9,0,83.0538,21.2836,101.9157,39.4293l69.4446-66.6477C382.4909,25.1379,324.916,0,255.8125,0,114.4676,0,0,114.4676,0,255.8125S114.4676,511.625,255.8125,511.625Z" transform="translate(0)"/></svg>