<svg id="Layer_1" data-name="Layer 1" xmlns="http://www.w3.org/2000/svg" width="2500" height="2372" viewBox="0 0 2500 2372"><title>zalo1</title><path d="M1820.0313,1005.7231c-55.5058-3.0838-94.5655,39.06-94.5655,103.3023a113.77,113.77,0,0,0,22.1,71.952,83.8218,83.8218,0,0,0,118.2067,15.4184c5.6533-4.1116,10.2788-9.251,14.9043-14.39,29.8086-39.06,29.8086-104.8443.514-143.904C1866.8,1018.5715,1844.1863,1006.2371,1820.0313,1005.7231Z"/><path d="M1250,0C559.644,0,0,490.7,0,1096.01c0,325.0087,161.3539,616.9649,417.6419,817.6749-45.3841,160.2245-100.0516,307.5542-178.5093,421.8387-12.4154,18.0846,3.9852,43.2071,22.7131,34.8081C405.1,2306.085,539.5005,2196.0067,670.8749,2067.53,844.0072,2147.036,1041.01,2192.0189,1250,2192.0189c690.356,0,1250-490.7,1250-1096.0094S1940.356,0,1250,0ZM870.7794,1335.5377c-83.2586,1.028-166.0035.5141-249.2621.5141-24.1553,0-47.7967,1.0278-71.9519-.5141-29.8087-1.5419-59.1034-7.7091-73.4939-38.5458s-4.1115-58.5893,15.4184-83.7725c79.147-100.7328,158.8081-201.9794,238.4693-302.7123,4.6254-6.1673,9.2509-12.3345,13.8763-17.9878-5.1394-8.7371-12.3345-4.6255-18.5019-5.1394-55.5058-.5139-111.5256,0-167.0314-.5139a187.366,187.366,0,0,1-38.0316-4.1117,54.0389,54.0389,0,0,1-40.6015-64.7567c4.6255-19.53,20.0437-35.4622,39.5736-40.0877a157.2456,157.2456,0,0,1,38.0317-4.6255c91.4818-.5139,183.4775-.5139,274.9592,0a170.335,170.335,0,0,1,48.3106,5.6533c34.9481,11.8208,49.8524,44.1993,35.976,78.1194-12.3346,29.2947-31.8644,54.4779-51.3942,79.6609q-100.99,128.7429-201.98,255.9435c-5.6534,6.6813-10.7929,13.3627-19.0158,24.6693v0c77.6053,0,150.5852-.5141,223.051,0,40.6014.5139,62.701,17.4738,66.8125,49.8522C938.62,1307.7849,914.9785,1335.0237,870.7794,1335.5377Zm494.9267-57.3487a60.7686,60.7686,0,0,1-42.6571,58.0754,62.4785,62.4785,0,0,1-71.9521-20.0437c-8.737-10.793-12.3346-12.8486-24.6692-3.0836-46.7688,38.0315-99.7048,44.7128-156.7524,26.2109-91.4818-29.8086-129-101.2466-139.2785-188.1029-10.7927-94.0515,20.5577-174.2264,104.8442-223.5649,69.8963-41.6294,140.82-38.0318,205.063,17.988,12.3347-15.9324,25.1833-30.8365,46.255-34.9482,40.6013-8.2232,78.6331,17.988,79.1471,59.1035C1367.2478,1072.6119,1366.7341,1175.4,1365.7061,1278.189Zm185.8944-5.14a66.8151,66.8151,0,0,1-64.7569,67.84,79.8307,79.8307,0,0,1-19.0158-2.0558c-25.6972-6.6813-45.227-33.92-45.227-66.2985V863.9512c0-24.1552-.5139-47.7967,0-71.9519.5141-39.5735,25.6972-65.2708,63.7288-65.2708,39.06-.5138,65.2709,25.1834,65.2709,66.2987.514,80.1749,0,160.8639,0,241.039C1551.6005,1113.7273,1552.1145,1193.3884,1551.6005,1273.0494Zm283.335,75.5495c-134.139,13.3626-240.5251-83.7725-238.4693-212.2583-4.1115-132.083,82.7447-230.76,206.0909-234.3577,131.0553-4.1116,226.6487,83.7727,230.76,212.2582C2037.4287,1244.2686,1957.7676,1336.2644,1834.9355,1348.5989Z"/><path d="M1153.9618,1005.7231c-56.5336-3.5976-96.1073,40.0876-95.5933,112.5535,1.0279,22.6133,8.2231,44.199,21.5856,62.187,27.7529,37.0039,80.689,44.7129,118.2068,16.96a88.3048,88.3048,0,0,0,16.96-16.96c28.7806-39.06,28.7806-103.3025,0-142.362A77.2179,77.2179,0,0,0,1153.9618,1005.7231Z"/></svg>